<svg xmlns="http://www.w3.org/2000/svg" viewBox="0 0 512 512" role="img" aria-label="Volleyball">
  <rect width="512" height="512" rx="108" fill="#0b1220"/>
  <circle cx="256" cy="256" r="166" fill="#f8fafc"/>
  <path d="M256 90c34 35 52 80 54 135 46-24 83-61 112-111 33 35 52 82 52 133 0 11-1 22-3 33-55 19-111 18-168-3-14 45-40 89-79 132-50-10-93-39-122-80 18-54 49-97 94-129-43-8-84-28-123-59 31-31 75-51 123-51h60z" fill="#22c55e"/>
  <path d="M303 277c57 21 113 22 168 3-9 50-38 93-78 121-51-10-93-34-125-72 15-17 26-34 35-52z" fill="#60a5fa"/>
  <path d="M196 200c-45 32-76 75-94 129-27-38-38-87-29-139 38 14 79 17 123 10z" fill="#facc15"/>
  <path d="M310 225c-2-55-20-100-54-135 65 0 124 38 151 92-26 19-58 33-97 43z" fill="#f87171"/>
  <path d="M256 90c34 35 52 80 54 135 46-24 83-61 112-111M303 277c57 21 113 22 168 3M196 200c-45 32-76 75-94 129M196 200c-43-8-84-28-123-59M224 409c39-43 65-87 79-132" fill="none" stroke="#0b1220" stroke-width="18" stroke-linecap="round" stroke-linejoin="round"/>
  <circle cx="256" cy="256" r="166" fill="none" stroke="#0b1220" stroke-width="18"/>
</svg>
